<svg xmlns="http://www.w3.org/2000/svg" viewBox="0 0 512 512">
  <defs>
    <linearGradient id="bg" x1="0%" y1="0%" x2="100%" y2="100%">
      <stop offset="0%" style="stop-color:#818cf8"/>
      <stop offset="100%" style="stop-color:#6366f1"/>
    </linearGradient>
  </defs>
  <!-- 背景圆角矩形 -->
  <rect width="512" height="512" rx="100" fill="url(#bg)"/>
  <!-- 铃铛图标 -->
  <g transform="translate(256, 240)">
    <!-- 铃铛主体 -->
    <path d="M-80 20 C-80 -60 -60 -100 0 -100 C60 -100 80 -60 80 20 L80 40 L100 40 C100 60 80 80 60 80 L-60 80 C-80 80 -100 60 -100 40 L-80 40 Z" fill="#fef3c7"/>
    <!-- 铃铛内部阴影 -->
    <path d="M-60 20 C-60 -40 -40 -80 0 -80 C40 -80 60 -40 60 20 L60 40 L-60 40 Z" fill="#fcd34d"/>
    <!-- 铃铛顶部圆环 -->
    <circle cx="0" cy="-100" r="20" fill="#fef3c7"/>
    <!-- 铃铛下方小球 -->
    <circle cx="0" cy="100" r="25" fill="#f59e0b"/>
  </g>
  <!-- 叮 字 -->
  <text x="256" y="420" font-family="Arial, sans-serif" font-size="100" font-weight="bold" fill="white" text-anchor="middle">叮</text>
</svg>
